<svg xmlns="http://www.w3.org/2000/svg" width="30.766" height="34.914" viewBox="0 0 30.766 34.914">
  <g id="그룹_4521" data-name="그룹 4521" transform="translate(-24.617 -56.543)">
    <path id="패스_5650" data-name="패스 5650" d="M17.65,45.544A10.37,10.37,0,0,1,28.021,35.173c.116,0,.231,0,.346.009V31.371a10.371,10.371,0,0,0-20.741,0V45.544a10.371,10.371,0,0,0,15.383,9.079,10.367,10.367,0,0,1-5.358-9.079" transform="translate(16.992 35.543)" fill="#fff" opacity="0.7"/>
    <path id="패스_5651" data-name="패스 5651" d="M57.483,62.025V72.387a10.367,10.367,0,0,1-5.358,9.079,10.37,10.37,0,1,0,5.358-19.441" transform="translate(-12.125 8.699)" fill="#fff" opacity="0.7"/>
    <path id="패스_5652" data-name="패스 5652" d="M47.341,72.371V62.009C47.226,62,47.111,62,47,62a10.371,10.371,0,0,0-5.012,19.45,10.367,10.367,0,0,0,5.358-9.079" transform="translate(-1.983 8.717)" fill="#fff"/>
    <path id="패스_5655" data-name="패스 5655" d="M58.109,78.923c.791,0,.647.841.647,1.21s-.144.841-.647.841-.575-.631-.575-1.026.024-1.026.575-1.026" transform="translate(-15.664 -2.357)"/>
    <path id="패스_5656" data-name="패스 5656" d="M74.725,78.923c.791,0,.647.841.647,1.21s-.144.841-.647.841-.575-.631-.575-1.026.024-1.026.575-1.026" transform="translate(-26.536 -2.357)"/>
    <path id="패스_5653" data-name="패스 5653" d="M27.109,42.549c.791,0,.647.842.647,1.21s-.144.841-.647.841-.575-.631-.575-1.026.024-1.026.575-1.026" transform="translate(4.62 21.443)"/>
    <path id="패스_5654" data-name="패스 5654" d="M43.725,42.549c.791,0,.647.842.647,1.21s-.144.841-.647.841-.575-.631-.575-1.026.024-1.026.575-1.026" transform="translate(-6.252 21.443)"/>
  </g>
</svg>
