<svg xmlns="http://www.w3.org/2000/svg" xmlns:xlink="http://www.w3.org/1999/xlink" width="37" height="37" viewBox="0 0 37 37">
  <defs>
    <clipPath id="clip-path">
      <rect id="사각형_2336" data-name="사각형 2336" width="37" height="37" fill="none"/>
    </clipPath>
  </defs>
  <g id="그룹_4489" data-name="그룹 4489" clip-path="url(#clip-path)">
    <path id="패스_5536" data-name="패스 5536" d="M18.587,0A18.587,18.587,0,1,0,37.174,18.587,18.587,18.587,0,0,0,18.587,0" fill="#f67a5a"/>
    <path id="패스_5537" data-name="패스 5537" d="M20.94,16.923c1.417,0,1.16,1.508,1.16,2.168S21.842,20.6,20.94,20.6s-1.031-1.131-1.031-1.838.043-1.838,1.031-1.838" transform="translate(-7.574 -6.438)"/>
    <path id="패스_5538" data-name="패스 5538" d="M37.556,16.923c1.417,0,1.16,1.508,1.16,2.168s-.258,1.508-1.16,1.508-1.031-1.131-1.031-1.838.043-1.838,1.031-1.838" transform="translate(-13.895 -6.438)"/>
    <g id="그룹_4495" data-name="그룹 4495" transform="translate(15.663 16.051)">
      <path id="패스_5545" data-name="패스 5545" d="M.5.021A3.035,3.035,0,0,0,3.359,2.945,2.924,2.924,0,0,0,6.349.021" transform="translate(-0.5 -0.021)" fill="none" stroke="#000" stroke-width="1"/>
    </g>
  </g>
</svg>
