<svg xmlns="http://www.w3.org/2000/svg" width="28" height="28" viewBox="0 0 28 28">
  <g id="그룹_4463" data-name="그룹 4463" transform="translate(-36 -139)">
    <path id="패스_5240" data-name="패스 5240" d="M8.615,0H19.385A8.615,8.615,0,0,1,28,8.615V19.385A8.615,8.615,0,0,1,19.385,28H8.615A8.615,8.615,0,0,1,0,19.385V8.615A8.615,8.615,0,0,1,8.615,0Z" transform="translate(36 139)" fill="#d6d6d6"/>
    <path id="user" d="M13.386,13.386a3.693,3.693,0,1,1,3.693-3.693A3.693,3.693,0,0,1,13.386,13.386Zm0,2.77c2.941,0,5.581.527,7.386,2.828v1.788H6V18.984C7.805,16.682,10.445,16.156,13.386,16.156Z" transform="translate(36.42 139.42)" fill="#fff"/>
  </g>
</svg>
